<svg width="2472" height="1942" viewBox="0 0 2472 1942" fill="none" xmlns="http://www.w3.org/2000/svg">
<g id="Currency Converter">
<path id="Subtract" fill-rule="evenodd" clip-rule="evenodd" d="M1593.58 1873.73C1488.86 1829.78 1400.74 1754.1 1341.27 1658.71C1218.56 1676.87 1092.92 1662.23 977.259 1615.88C847.062 1563.71 735.475 1473.73 656.878 1357.56C656.119 1356.44 655.391 1355.37 654.688 1354.33L654.688 1354.33C649.019 1345.97 644.935 1339.95 638.581 1329.16C631.053 1316.38 619.932 1296.13 602.259 1260.78L356.291 1383.77C395.177 1461.54 412.082 1486.51 427.837 1509.78L429.109 1511.66C538.487 1673.33 693.776 1798.54 874.961 1871.15C1056.15 1943.76 1254.92 1960.44 1445.68 1919.05C1447.57 1918.64 1449.47 1918.24 1451.41 1917.83C1475.4 1912.71 1504.69 1906.47 1593.58 1873.73Z" fill="white"/>
<path id="Polygon 6" d="M264.138 1475.28L264.138 947L721.638 1211.14L264.138 1475.28Z" fill="white"/>
<path id="Subtract_2" fill-rule="evenodd" clip-rule="evenodd" d="M665.5 1000C902.706 1000 1095 807.706 1095 570.5C1095 333.294 902.706 141 665.5 141C428.294 141 236 333.294 236 570.5C236 807.706 428.294 1000 665.5 1000ZM732 741C720.267 754.333 704.267 761.533 684 762.6V621C704.267 626.333 720.267 635.4 732 648.2C744.267 661 750.4 676.733 750.4 695.4C750.4 712.467 744.267 727.667 732 741ZM604.8 401C616 389.267 631.467 382.867 651.2 381.8V509C630.933 506.333 615.2 498.6 604 485.8C593.333 472.467 588 457.8 588 441.8C588 426.333 593.6 412.733 604.8 401ZM651.2 841.8V873H684V841.8C708.533 840.733 730.933 836.2 751.2 828.2C771.467 820.2 788.8 809.267 803.2 795.4C817.6 781.533 828.533 765.267 836 746.6C844 727.4 848 706.067 848 682.6C848 662.867 846.133 645.533 842.4 630.6C838.667 615.667 830.933 602.067 819.2 589.8C808 577 791.467 565 769.6 553.8C748.267 542.6 719.733 531.133 684 519.4V381.8C702.133 382.867 716 388.733 725.6 399.4C735.733 409.533 742.133 429 744.8 457.8H839.2C834.4 357.533 782.667 305.8 684 302.6V267.4H651.2V302.6C628.267 303.133 607.2 307.4 588 315.4C568.8 323.4 552 334.333 537.6 348.2C523.733 362.067 512.8 378.333 504.8 397C496.8 415.133 492.8 434.6 492.8 455.4C492.8 477.267 496 496.2 502.4 512.2C509.333 527.667 519.2 541.533 532 553.8C545.333 565.533 561.867 575.933 581.6 585C601.333 593.533 624.533 601.267 651.2 608.2V762.6C639.467 761 629.6 758.6 621.6 755.4C613.6 751.667 606.667 746.333 600.8 739.4C595.467 732.467 590.933 723.4 587.2 712.2C584 701 581.333 686.867 579.2 669.8H483.2C483.2 698.067 486.4 722.6 492.8 743.4C499.2 763.667 509.067 780.733 522.4 794.6C536.267 808.467 553.6 819.133 574.4 826.6C595.733 834.067 621.333 839.133 651.2 841.8Z" fill="white"/>
<path id="Subtract_3" fill-rule="evenodd" clip-rule="evenodd" d="M1595.33 70.1278C1414.14 -2.48255 1215.36 -19.1675 1024.61 22.2214C1022.72 22.6322 1020.82 23.0371 1018.88 23.4492C994.905 28.5605 965.646 34.7975 876.902 67.4753C981.522 111.496 1069.53 187.203 1128.92 282.581C1251.66 264.396 1377.34 279.028 1493.03 325.393C1623.23 377.569 1734.81 467.541 1813.41 583.713C1814.17 584.835 1814.9 585.907 1815.6 586.944L1815.6 586.946C1821.27 595.304 1825.35 601.326 1831.71 612.114C1839.24 624.895 1850.36 645.146 1868.03 680.492L2114 557.508C2075.11 479.737 2058.21 454.766 2042.45 431.493L2041.18 429.614C1931.8 267.946 1776.51 142.738 1595.33 70.1278Z" fill="white"/>
<path id="Polygon 5" d="M2207.15 466L2207.15 994.275L1749.65 730.138L2207.15 466Z" fill="white"/>
<path id="Subtract_4" fill-rule="evenodd" clip-rule="evenodd" d="M1804.5 1800C2041.71 1800 2234 1607.71 2234 1370.5C2234 1133.29 2041.71 941 1804.5 941C1567.29 941 1375 1133.29 1375 1370.5C1375 1607.71 1567.29 1800 1804.5 1800ZM1958.8 1627.5C1992.4 1609.9 2019.33 1585.63 2039.6 1554.7L1946.8 1502.7C1926.53 1538.97 1891.87 1557.1 1842.8 1557.1C1817.2 1557.1 1794.8 1549.63 1775.6 1534.7C1756.93 1519.23 1742 1497.63 1730.8 1469.9H1802L1834.8 1409.1H1715.6C1714.53 1403.23 1713.73 1394.7 1713.2 1383.5V1350.7H1866.8L1899.6 1288.3H1724.4C1734.53 1254.7 1750.27 1228.83 1771.6 1210.7C1792.93 1192.03 1818.8 1182.7 1849.2 1182.7C1864.67 1182.7 1880.13 1185.9 1895.6 1192.3C1911.6 1198.17 1924.93 1207.5 1935.6 1220.3L1986.8 1126.7C1966 1113.9 1944.4 1104.03 1922 1097.1C1899.6 1090.17 1875.07 1086.7 1848.4 1086.7C1783.87 1086.7 1732.13 1104.57 1693.2 1140.3C1654.27 1175.5 1626.27 1224.83 1609.2 1288.3H1579.6L1565.2 1350.7H1602C1601.47 1354.43 1601.2 1358.43 1601.2 1362.7V1376.3V1393.1C1601.2 1398.43 1601.47 1403.77 1602 1409.1H1579.6L1565.2 1469.9H1611.6C1619.07 1500.3 1630.27 1526.97 1645.2 1549.9C1660.13 1572.83 1677.73 1592.03 1698 1607.5C1718.8 1622.97 1741.73 1634.43 1766.8 1641.9C1792.4 1649.9 1819.07 1653.9 1846.8 1653.9C1888.4 1653.9 1925.73 1645.1 1958.8 1627.5Z" fill="white"/>
</g>
</svg>
